<?xml version="1.0" encoding="UTF-8" standalone="no"?>
<svg
   width="209mm"
   height="199mm"
   inkscape:version="1.4.2 (ebf0e940d0, 2025-05-08)"
   sodipodi:docname="MCT630_about_icon.v.1.1.svg"
   version="1.1"
   viewBox="0 0 209 199"
   xml:space="preserve"
   id="svg18"
   xmlns:inkscape="http://www.inkscape.org/namespaces/inkscape"
   xmlns:sodipodi="http://sodipodi.sourceforge.net/DTD/sodipodi-0.dtd"
   xmlns="http://www.w3.org/2000/svg"
   xmlns:svg="http://www.w3.org/2000/svg"><defs
     id="defs18"><marker
       style="overflow:visible"
       id="RoundedArrow"
       refX="0"
       refY="0"
       orient="auto-start-reverse"
       inkscape:stockid="Rounded arrow"
       markerWidth="0.001"
       markerHeight="0.001"
       viewBox="0 0 1 1"
       inkscape:isstock="true"
       inkscape:collect="always"
       preserveAspectRatio="xMidYMid"><path
         transform="scale(0.7)"
         d="m -0.21114562,-4.1055728 6.42229122,3.21114561 a 1,1 90 0 1 0,1.78885438 L -0.21114562,4.1055728 A 1.236068,1.236068 31.717474 0 1 -2,3 v -6 a 1.236068,1.236068 148.28253 0 1 1.78885438,-1.1055728 z"
         style="fill:context-stroke;fill-rule:evenodd;stroke:none"
         id="path21" /></marker></defs><sodipodi:namedview
     bordercolor="#000000"
     borderopacity="0.25"
     inkscape:current-layer="svg18"
     inkscape:cx="422.41379"
     inkscape:cy="394.82759"
     inkscape:deskcolor="#d1d1d1"
     inkscape:document-units="mm"
     inkscape:pagecheckerboard="true"
     inkscape:pageopacity="0.0"
     inkscape:showpageshadow="2"
     inkscape:window-height="718"
     inkscape:window-maximized="1"
     inkscape:window-width="1280"
     inkscape:window-x="0"
     inkscape:window-y="0"
     inkscape:zoom="1.16"
     pagecolor="#1d1d1d"
     id="namedview1" /><g
     fill="none"
     id="g4"
     style="display:inline"><g
       transform="translate(-0.00595,-0.422)"
       fill-opacity="0.997"
       id="g1"><path
         id="frame"
         d="M 4.52,195 V 14 c 0,-5.07 4.52,-9.15 10.1,-9.15 h 180 c 5.62,0 10.1,4.08 10.1,9.15 v 181"
         stroke="#ffffff"
         stroke-linecap="round"
         stroke-linejoin="round"
         stroke-miterlimit="4.4"
         stroke-width="9.03"
         inkscape:label="#frame" /></g><g
       stroke="#ffffff"
       id="g3"
       style="display:inline" /></g><path
     d="m 104.20953,115.39637 c 1.79382,4.41531 4.37007,4.66832 6.32633,-0.039"
     stroke="#ffffff"
     stroke-linejoin="bevel"
     stroke-width="0.925"
     sodipodi:nodetypes="cc"
     id="path6"
     inkscape:label="nose"
     style="display:inline;fill:none;stroke-width:1.51907;stroke-linecap:round;stroke-linejoin:round;stroke-dasharray:none" /><text
     transform="matrix(0.2617816,0,0,0.20122858,61.023065,196.47549)"
     fill-rule="evenodd"
     font-family="'ZT Gatha'"
     font-size="96px"
     font-weight="600"
     stroke="#ffffff"
     stroke-width="3.2693"
     text-align="center"
     style="line-height:0;white-space:pre;shape-inside:url(#rect29);display:inline;fill:#ffffff;fill-opacity:1"
     xml:space="preserve"
     id="michael"><tspan
       x="0"
       y="0"
       id="tspan2">Michael</tspan></text><g
     stroke="#ffffff"
     id="g17"
     style="fill:none;stroke-width:3.8;stroke-dasharray:none"><g
       stroke="#ffffff"
       id="g5"
       style="display:inline;stroke-width:3.8;stroke-dasharray:none"
       transform="translate(-0.85349462,5.5477151)"><g
         id="g87"
         style="stroke-width:3.8;stroke-dasharray:none"
         transform="translate(1.2802419,1.2802419)"><path
           d="m 60.271988,80.421236 c 17.903425,-7.617137 29.046073,-3.097522 36.700785,0.148791"
           stroke-linejoin="bevel"
           stroke-width="3.72615"
           sodipodi:nodetypes="cc"
           id="path2"
           style="display:inline;stroke-width:3.8;stroke-dasharray:none;marker-start:url(#RoundedArrow)" /><path
           d="m 62.449909,78.495142 c -1.577211,2.594642 -1.134297,7.790514 1.472525,12.346912"
           stroke-linecap="square"
           stroke-linejoin="bevel"
           stroke-width="1.40439"
           sodipodi:nodetypes="cc"
           id="path3"
           style="display:inline;stroke-width:3.8;stroke-dasharray:none" /><ellipse
           cx="81.352997"
           cy="89.80365"
           rx="3.4212999"
           ry="13.297"
           fill="#ffffff"
           fill-rule="evenodd"
           stroke-linecap="round"
           stroke-linejoin="round"
           stroke-width="1.8997"
           id="ellipse4"
           style="stroke-width:3.8;stroke-dasharray:none" /></g><g
         id="g6"
         style="stroke-width:3.8;stroke-dasharray:none"
         transform="matrix(-1,0,0,1,213.55635,1.2802419)"><path
           d="m 60.271988,80.421236 c 17.903425,-7.617137 29.046073,-3.097522 36.700785,0.148791"
           stroke-linejoin="bevel"
           stroke-width="3.72615"
           sodipodi:nodetypes="cc"
           id="path4"
           style="display:inline;stroke-width:3.8;stroke-dasharray:none;marker-start:url(#RoundedArrow)" /><path
           d="m 62.449909,78.495142 c -1.577211,2.594642 -1.134297,7.790514 1.472525,12.346912"
           stroke-linecap="square"
           stroke-linejoin="bevel"
           stroke-width="1.40439"
           sodipodi:nodetypes="cc"
           id="path5"
           style="display:inline;stroke-width:3.8;stroke-dasharray:none" /><ellipse
           cx="81.352997"
           cy="89.80365"
           rx="3.4212999"
           ry="13.297"
           fill="#ffffff"
           fill-rule="evenodd"
           stroke-linecap="round"
           stroke-linejoin="round"
           stroke-width="1.8997"
           id="ellipse5"
           style="stroke-width:3.8;stroke-dasharray:none" /></g></g><path
       style="display:inline;stroke-width:3.8;stroke-linecap:round;stroke-linejoin:round;stroke-dasharray:none"
       d="m 58.518788,110.86433 c -7.417031,1.75449 -4.907249,-4.06743 -5.864346,-16.72931 -0.385762,-5.103423 4.898933,-7.064424 4.898933,-7.064424 l 2.066548,14.634924 c 0.338777,1.78036 0.30198,3.89438 0.09797,6.16899 0.327686,5.95191 0.391504,10.99841 4.100961,16.31851 -0.74891,0.51775 0.285243,0.6048 0.651012,1.4717 0,0 0.101609,0.24066 0.299072,0.68522 0.288552,0.30776 0.573049,0.62307 0.853157,0.9472 0.801218,0.92715 0.749326,1.53761 0.54372,2.05565 1.930478,3.99599 5.432455,10.70196 10.107791,17.39748 7.353093,10.52974 17.695159,21.4072 30.052284,21.1522 0.0626,-0.0246 0.12374,-0.0529 0.18348,-0.0847 0.0605,0.032 0.12263,0.0601 0.18608,0.0847 12.35713,0.25528 22.90094,-10.60624 30.47369,-21.12999 7.57235,-10.52374 12.24587,-21.07469 12.24587,-21.07469 0.38679,-0.87181 1.42574,-0.51269 0.66604,-1.03815 3.94771,-5.66195 5.62733,-19.28772 7.24812,-22.28625 -3.99482,-1.42281 -3.94903,0.14036 -3.94888,0.14004 1.78789,4.27919 6.40974,-18.433236 5.84604,-13.831838 3.31126,-2.080263 4.56785,2.965947 5.15069,6.174863 0,0 -0.23923,7.805195 -10.54947,18.568295"
       id="path73"
       sodipodi:nodetypes="csccccccsccccccccccccc" /><path
       style="display:inline;stroke-width:1.5;stroke-dasharray:none"
       d="M 89.752421,36.912403 C 81.323388,37.312789 78.536251,58.550617 70.00151,51.189815 63.293418,45.40457 49.907194,58.936233 53.442304,68.910071 c 3.671947,10.360702 0.531788,22.607521 0.531788,22.607521 l 1.80061,-3.040761 c 3.364287,-8.262596 3.283831,-11.49192 0.656488,-20.159035 -0.656249,-0.49332 -0.857271,-4.136167 -0.144106,-5.595479 0.925027,-1.892839 2.715829,-3.930862 3.858379,-4.753044 0.758193,-0.545596 2.925838,-1.819456 4.034997,-2.227455 0.02232,-0.0082 2.596696,-1.760979 6.601266,-0.217036 2.521966,0.972333 4.199306,0.415545 5.983595,-0.155921 4.473483,-1.43275 5.480405,-4.833771 7.466393,-8.271851 1.996325,-3.455977 5.370731,-7.637924 8.230113,-5.793095 1.173687,0.757248 3.620718,2.238764 5.431426,4.42578 3.316257,4.005459 6.053387,9.278876 5.917117,9.036611 l 1.6269,3.076744 c -1.41809,-3.234389 -3.64184,-8.625971 -4.84383,-11.192102 -2.038627,-4.352242 -3.799722,-6.168811 -5.396492,-7.692715 -1.946875,-1.858033 -3.781423,-2.124829 -5.444527,-2.04583 z"
       id="path8" /><path
       d="m 106.37728,58.070358 c 4.69632,-6.161899 11.17731,-7.078529 13.00807,-6.539942"
       stroke-width="0.455887"
       sodipodi:nodetypes="cc"
       id="path9"
       style="stroke-width:3.8;stroke-dasharray:none" /><path
       d="M 105.78527,19.255155 C 85.494801,18.333777 75.248142,28.94726 66.717891,34.004643 c -8.25762,4.895701 -8.76512,16.750034 -13.00139,22.508781 -3.511764,4.773709 -4.476368,5.943562 -8.170961,14.703418 -1.59304,3.777085 2.415608,15.156082 0.02791,29.280378 -1.861193,11.00975 5.194998,14.73405 12.609049,20.20601 0.236932,-4.12685 -0.849404,-30.359974 -0.483569,-34.451054 -0.33957,-6.18651 51.95347,-20.179288 46.66847,-29.645173 8.81944,13.120205 27.29381,25.247935 46.22537,24.10979 -3.52275,9.993067 -0.48402,21.239997 1.91028,23.062787 0.55991,0.42626 -1.88075,-4.674066 6.82657,-12.534395 7.56042,-6.824989 8.16697,-20.172167 8.8389,-23.702314 1.43104,-7.518436 -1.36542,-15.779781 -4.83526,-20.183237 -4.18554,-5.311555 -11.00815,-9.974391 -19.16717,-14.490452 -8.39684,-4.64796 -18.47798,-14.383378 -38.38009,-13.614157 z"
       style="display:inline;stroke-width:3.8;stroke-dasharray:none"
       id="path71"
       sodipodi:nodetypes="cccssccccssscccc" /><path
       d="m 57.634725,87.796708 c 5e-6,-2.96e-4 -5e-6,-0.0013 0,-0.0015 l -0.102319,-0.725537 c 0,0 -7.004354,0.568459 -6.619751,5.672005 0.93616,12.422524 0.215993,19.601784 7.171138,18.212324 -0.194894,-8.09722 -0.527009,-18.725506 -0.449068,-23.157242 z"
       style="display:inline;stroke-width:3.8;stroke-dasharray:none"
       id="path85" /><path
       d="m 154.67841,101.7912 c -1.63227,-0.14513 -1.60724,0.72164 -1.60713,0.72141 0.41573,0.99804 0.98546,0.52805 1.60713,-0.72141 z"
       style="display:inline;stroke-width:3.8;stroke-dasharray:none"
       id="path84" /><path
       d="m 159.43471,88.376518 c -0.17717,0.08988 -0.35549,0.19135 -0.53485,0.304374 0.43093,-3.52832 -2.17757,9.002461 -4.22145,13.110308 0.41801,0.0372 0.94448,0.14062 1.60817,0.3421 1.73958,-1.70468 3.35279,-4.952696 3.04323,-10.888224 -0.0478,-0.917017 -0.006,-1.878583 0.1049,-2.868558 z"
       style="display:inline;stroke-width:3.8;stroke-dasharray:none"
       id="path83" /><path
       d="m 153.09246,101.77002 c 0.13628,-0.3772 -0.0723,1.64103 0.0914,1.25857 l -1.36838,-0.12929 c 1.20584,-1.65558 -0.75011,3.86209 0.37519,2.92577 0.17557,-1.61329 0.40571,-2.58108 0.70125,-3.49747 0.0595,-0.1844 0.13337,-0.37175 0.2005,-0.55758 z"
       style="display:inline;stroke-width:3.8;stroke-dasharray:none"
       id="path74"
       sodipodi:nodetypes="scccss" /><path
       d="m 64.726282,126.34991 c -0.19687,-0.44457 -0.298173,-0.68523 -0.298173,-0.68523 -0.36467,-0.86692 -1.395716,-0.95398 -0.649056,-1.47174 -3.698312,-5.32023 -3.761938,-10.36685 -4.08864,-16.3189 -0.365835,4.09108 -1.270986,8.70234 -1.507918,12.82919 2.226282,1.64311 4.484665,3.44378 6.543787,5.64668 z"
       style="fill-rule:evenodd;stroke-width:3.8;stroke-dasharray:none"
       id="path72" /></g><path
     style="fill:none;fill-opacity:1;fill-rule:evenodd;stroke:#ffffff;stroke-width:2.22181;stroke-linecap:butt;stroke-dasharray:none;stroke-opacity:1"
     d="m 152.49799,119.913 c 5.71582,3.9383 9.59939,21.22661 7.62341,27.37995 -1.11615,3.47575 1.50547,8.2064 -8.19904,14.66256 2.37568,9.20997 -0.14931,16.39351 -7.47142,18.29327"
     id="path86"
     sodipodi:nodetypes="cscc" /><path
     style="fill:none;fill-opacity:1;fill-rule:evenodd;stroke:#ffffff;stroke-width:2.3028;stroke-linecap:butt;stroke-dasharray:none;stroke-opacity:1"
     d="m 134.70595,179.5054 c -7.23693,-9.36664 5.05767,-21.00906 5.05767,-21.00906 -5.53782,-0.65984 -7.46217,-0.21063 -6.55213,-4.69097"
     id="path87"
     sodipodi:nodetypes="ccc" /><path
     style="fill:none;fill-opacity:1;fill-rule:evenodd;stroke:#ffffff;stroke-width:0.793991;stroke-linecap:butt;stroke-dasharray:none;stroke-opacity:1"
     d="m 134.61887,178.87159 c 2.68902,-0.95804 6.78577,-5.78723 6.78577,-5.78723 0.1445,3.19924 5.89665,8.79692 4.1875,6.44665"
     id="path88"
     sodipodi:nodetypes="ccc" /><path
     style="fill:none;fill-opacity:1;fill-rule:evenodd;stroke:#ffffff;stroke-width:1.073;stroke-linecap:butt;stroke-dasharray:none;stroke-opacity:1"
     d="m 140.24249,158.20942 c 2.68079,-1.16176 8.36334,-6.85302 8.36334,-6.85302 -0.25232,3.78041 0.89311,10.81736 3.15299,10.94019"
     id="path89"
     sodipodi:nodetypes="ccc" /><path
     sodipodi:type="star"
     style="fill:#ffffff;fill-rule:evenodd;stroke:#ffffff;stroke-width:3.20007;stroke-linecap:round;stroke-miterlimit:7.7;stroke-dasharray:none"
     id="path1"
     inkscape:flatsided="false"
     sodipodi:sides="3"
     sodipodi:cx="103.6996"
     sodipodi:cy="138.26613"
     sodipodi:r1="24.676689"
     sodipodi:r2="24.261877"
     sodipodi:arg1="-0.45666374"
     sodipodi:arg2="1.5525699"
     inkscape:rounded="0.48"
     inkscape:randomized="0"
     d="m 125.84764,127.38479 c -9.60158,17.34504 -10.67034,18.66927 -21.70586,35.13919 -0.56751,0.84698 -1.56708,1.23719 -2.09268,0.36358 -10.220461,-16.98773 -10.832892,-18.57542 -19.578503,-36.36741 -0.449753,-0.91498 -0.287901,-1.97574 0.73147,-1.99411 19.822033,-0.35731 21.503223,-0.0938 41.284353,1.22822 1.01727,0.068 1.85499,0.73854 1.36122,1.63053 z"
     inkscape:transform-center-x="-0.20600789"
     inkscape:transform-center-y="1.265369"
     transform="matrix(0.75571215,0,0,0.34884057,28.494315,92.553374)" /></svg>
