<?xml version="1.0" encoding="UTF-8" standalone="no"?>
<svg
   width="210mm"
   height="297mm"
   version="1.1"
   viewBox="0 0 210 297"
   id="svg2"
   sodipodi:docname="mct630-blog-previous.svg"
   inkscape:version="1.4.2 (ebf0e940d0, 2025-05-08)"
   xmlns:inkscape="http://www.inkscape.org/namespaces/inkscape"
   xmlns:sodipodi="http://sodipodi.sourceforge.net/DTD/sodipodi-0.dtd"
   xmlns="http://www.w3.org/2000/svg"
   xmlns:svg="http://www.w3.org/2000/svg">
  <defs
     id="defs2" />
  <sodipodi:namedview
     id="namedview2"
     pagecolor="#ffffff"
     bordercolor="#000000"
     borderopacity="0.25"
     inkscape:showpageshadow="2"
     inkscape:pageopacity="0.0"
     inkscape:pagecheckerboard="0"
     inkscape:deskcolor="#d1d1d1"
     inkscape:document-units="mm"
     inkscape:zoom="0.4204826"
     inkscape:cx="397.16269"
     inkscape:cy="561.25984"
     inkscape:window-width="1280"
     inkscape:window-height="718"
     inkscape:window-x="0"
     inkscape:window-y="0"
     inkscape:window-maximized="1"
     inkscape:current-layer="svg2" />
  <path
     d="m72.523 59.872 0.16522 36.729m84.877 26.396h-84.034c-1.1202 0-2.022 0.72772-2.022 1.6317v18.678c0 0.90396 0.9018 1.6317 2.022 1.6317h84.128m-84.257-48.051 123.22 2e-6c1.6425 0 2.9648 1.5931 2.9648 3.572v40.891c0 1.9789-1.3223 3.572-2.9648 3.572h-123.36m-0.83681 29.475-65.226-57.211m65.212-57.23-65.226 57.211"
     fill="none"
     stroke="#fff"
     stroke-linecap="round"
     stroke-width="5.251"
     id="arrow"
     inkscape:label="arrow" />
  <path
     d="m104.25 56.649q1.9804 0 3.7026 0.72782 1.7652 0.68738 3.0568 1.9408 1.3346 1.213 2.0666 2.8708 0.77495 1.6174 0.77495 3.4774 0 2.0217-0.77495 3.6795-0.77496 1.6578-2.2818 2.8708-1.4638 1.1726-3.7026 1.86-2.1957 0.64695-5.0372 0.64695-1.6791 0-2.9276-0.1213-1.2485-0.16174-2.1957-0.36391v10.756h-4.3484v-28.344zm-2.1957 13.99q1.4208 0 2.7554-0.24261t2.3679-0.80869q1.0763-0.56608 1.6791-1.4961 0.6458-0.97043 0.6458-2.4261 0-1.0109-0.43053-1.9004-0.38749-0.92999-1.1194-1.5769-0.68885-0.68738-1.6791-1.0917-0.94717-0.40434-2.0235-0.40434h-7.3191v9.3808q0.6458 0.16174 1.8943 0.36391 1.2485 0.20217 3.229 0.20217zm27.037-6.5099v4.0839h-2.7985q-0.90412 0-1.7221 0.24261-0.77496 0.24261-1.4208 0.76825-0.60273 0.48521-0.94717 1.213-0.34442 0.68738-0.34442 1.5769v12.979h-4.3484v-20.864h4.3484v2.3856q0.73191-1.0917 1.8082-1.7387 1.1194-0.64695 2.6262-0.64695zm5.1233 11.726q0.17222 1.213 0.77497 2.2239t1.5069 1.7791q0.90412 0.72782 2.0235 1.1726 1.1624 0.40434 2.411 0.40434 2.7554 0 4.3484-0.97042 1.636-0.97042 2.6263-3.2347l3.9609 1.6578q-1.5069 3.3156-4.1762 4.9734-2.6262 1.6174-6.7594 1.6174-2.2818 0-4.3484-0.84912-2.0235-0.84912-3.5304-2.3048-1.5069-1.4556-2.411-3.3965-0.86106-1.9813-0.86106-4.2052 0-2.2239 0.86106-4.1647 0.90412-1.9408 2.411-3.3965 1.5069-1.4556 3.5304-2.3048 2.0666-0.84912 4.3484-0.84912 2.3249 0 4.3484 0.84912 2.0666 0.84912 3.5734 2.3048 1.5069 1.4556 2.3679 3.3965 0.90412 1.9408 0.90412 4.1647 0 0.28304-0.043 0.56608 0 0.28304 0 0.56608zm13.26-2.9113q-0.30138-1.0513-0.94717-1.9408-0.60276-0.88956-1.4638-1.5365-0.81801-0.64695-1.8943-1.0109-1.0333-0.40434-2.2388-0.40434-1.1624 0-2.2388 0.40434-1.0763 0.36391-1.9374 1.0109-0.81802 0.64695-1.4638 1.5365-0.60274 0.88956-0.86106 1.9408zm28.157-8.4103-8.8259 20.46h-5.0803l-8.8259-20.46h4.6498l6.7594 15.486 6.6733-15.486zm2.4971 17.71q0-1.3748 0.90412-2.2239t2.2818-0.84912q1.4638 0 2.3249 0.84912 0.86106 0.84912 0.90412 2.2239 0 1.2535-0.90412 2.143-0.86107 0.88955-2.3249 0.88955-1.4208 0-2.3249-0.88955-0.86107-0.88956-0.86107-2.143z"
     fill="#fff"
     fill-rule="evenodd"
     stroke="#fff"
     stroke-linecap="round"
     stroke-width=".96943"
     aria-label="Prev."
     id="text"
     inkscape:label="text" />
</svg>
