<?xml version="1.0" encoding="UTF-8" standalone="no"?>
<svg
   width="210mm"
   height="297mm"
   version="1.1"
   viewBox="0 0 210 297"
   id="svg2"
   sodipodi:docname="mct630-blog-next.svg"
   inkscape:version="1.4.2 (ebf0e940d0, 2025-05-08)"
   xmlns:inkscape="http://www.inkscape.org/namespaces/inkscape"
   xmlns:sodipodi="http://sodipodi.sourceforge.net/DTD/sodipodi-0.dtd"
   xmlns="http://www.w3.org/2000/svg"
   xmlns:svg="http://www.w3.org/2000/svg">
  <defs
     id="defs2" />
  <sodipodi:namedview
     id="namedview2"
     pagecolor="#ffffff"
     bordercolor="#000000"
     borderopacity="0.25"
     inkscape:showpageshadow="2"
     inkscape:pageopacity="0.0"
     inkscape:pagecheckerboard="0"
     inkscape:deskcolor="#d1d1d1"
     inkscape:document-units="mm"
     inkscape:zoom="0.4204826"
     inkscape:cx="397.16269"
     inkscape:cy="561.25984"
     inkscape:window-width="1280"
     inkscape:window-height="718"
     inkscape:window-x="0"
     inkscape:window-y="0"
     inkscape:window-maximized="1"
     inkscape:current-layer="svg2" />
  <path
     d="m134.25 59.875-0.16522 36.729m-84.877 26.396h84.034c1.1202 0 2.022 0.72772 2.022 1.6317v18.678c0 0.90396-0.9018 1.6317-2.022 1.6317h-84.128m84.257-48.051h-123.22c-1.6425 0-2.9648 1.5931-2.9648 3.572v40.891c0 1.9789 1.3223 3.572 2.9648 3.572h123.36m0.83681 29.475 65.226-57.211m-65.212-57.23 65.226 57.211"
     fill="none"
     stroke="#fff"
     stroke-linecap="round"
     stroke-width="5.251"
     id="arrow"
     inkscape:label="arrow" />
  <path
     transform="matrix(.25554 0 0 .2113 3.873 -49.247)"
     d="m108.37 529.49 59.699 91.744v-91.419h16.267v113.87h-21.309l-59.536-91.582v91.256h-16.429v-113.87zm106.71 77.104q0.65067 4.88 2.928 8.9467 2.2773 4.0667 5.6933 7.1574 3.416 2.928 7.6454 4.7173 4.392 1.6267 9.1094 1.6267 10.411 0 16.429-3.904 6.1814-3.904 9.9227-13.013l14.965 6.6694q-5.6933 13.339-15.779 20.008-9.9227 6.5067-25.539 6.5067-8.6214 0-16.429-3.416-7.6453-3.416-13.339-9.272-5.6934-5.856-9.1094-13.664-3.2533-7.9707-3.2533-16.917t3.2533-16.755q3.416-7.808 9.1094-13.664t13.339-9.272q7.808-3.416 16.429-3.416 8.784 0 16.429 3.416 7.808 3.416 13.501 9.272 5.6934 5.856 8.9467 13.664 3.416 7.808 3.416 16.755 0 1.1387-0.16266 2.2773 0 1.1387 0 2.2773zm50.101-11.712q-1.1387-4.2293-3.5787-7.808-2.2773-3.5787-5.5307-6.1814-3.0907-2.6027-7.1574-4.0667-3.904-1.6267-8.4587-1.6267-4.392 0-8.4587 1.6267-4.0667 1.464-7.32 4.0667-3.0907 2.6027-5.5307 6.1814-2.2773 3.5787-3.2533 7.808zm103.46-33.672-31.72 39.04 32.696 43.107h-20.821l-22.773-30.581-22.611 30.581h-20.984l32.696-43.107-31.72-39.04h21.797l20.821 26.677 20.984-26.677zm33.347 55.469q0 3.904 0.976 6.1814 0.97601 2.2773 2.6027 3.2533 1.7893 0.976 4.392 1.1387 2.6027 0.16266 5.6934 0.16266h5.6934v15.941h-8.296q-6.1814 0-11.224-0.976-4.88-0.976-8.6214-3.2533-3.5787-2.44-5.6933-6.5067-1.952-4.0667-1.952-9.9227v-46.848h-10.248v-16.429h10.248v-19.52l16.429-4.5547v24.075h13.339v16.429h-13.339z"
     fill="#fff"
     fill-rule="evenodd"
     stroke="#fff"
     stroke-linecap="round"
     stroke-width="3.7795"
     style="white-space:pre"
     aria-label="Next"
     id="text"
     inkscape:label="text" />
</svg>
