<?xml version="1.0" encoding="UTF-8" standalone="no"?>
<svg
   width="209mm"
   height="199mm"
   inkscape:version="1.4.2 (ebf0e940d0, 2025-05-08)"
   sodipodi:docname="MCT630_portfolio_icon.v.1.0.svg"
   version="1.1"
   viewBox="0 0 209 199"
   xml:space="preserve"
   id="svg18"
   xmlns:inkscape="http://www.inkscape.org/namespaces/inkscape"
   xmlns:sodipodi="http://sodipodi.sourceforge.net/DTD/sodipodi-0.dtd"
   xmlns="http://www.w3.org/2000/svg"
   xmlns:svg="http://www.w3.org/2000/svg"><defs
     id="defs18" /><sodipodi:namedview
     bordercolor="#000000"
     borderopacity="0.25"
     inkscape:current-layer="svg18"
     inkscape:cx="359.09091"
     inkscape:cy="395.45455"
     inkscape:deskcolor="#d1d1d1"
     inkscape:document-units="mm"
     inkscape:pagecheckerboard="true"
     inkscape:pageopacity="0.0"
     inkscape:showpageshadow="2"
     inkscape:window-height="718"
     inkscape:window-maximized="1"
     inkscape:window-width="1280"
     inkscape:window-x="0"
     inkscape:window-y="0"
     inkscape:zoom="0.66"
     pagecolor="#1d1d1d"
     id="namedview1" /><g
     fill="none"
     id="g4"
     style="display:inline"><g
       transform="translate(-0.00595,-0.422)"
       fill-opacity="0.997"
       id="g1"><path
         id="frame"
         d="M 4.52,195 V 14 c 0,-5.07 4.52,-9.15 10.1,-9.15 h 180 c 5.62,0 10.1,4.08 10.1,9.15 v 181"
         stroke="#ffffff"
         stroke-linecap="round"
         stroke-linejoin="round"
         stroke-miterlimit="4.4"
         stroke-width="9.03"
         inkscape:label="#frame" /></g></g><path
     id="portfolio"
     style="fill:none;fill-rule:evenodd;stroke:#ffffff;stroke-width:6.41308"
     d="m 95.626283,42.107557 c -2.388105,0 -4.310456,1.915162 -4.310456,4.293491 V 57.393802 H 121.86578 V 46.401048 c 0,-2.378329 -1.92234,-4.293491 -4.31045,-4.293491 z M 23.876205,65.418813 v 2.499408 c 0,14.477537 11.703119,26.13275 26.240176,26.13275 H 161.15196 c 14.53705,0 26.24016,-11.655213 26.24016,-26.13275 v -2.354516 c -0.44522,-3.91616 -3.76556,-6.939842 -7.82072,-6.939842 H 31.679081 c -4.004949,0 -7.293196,2.94942 -7.802876,6.79495 z m 0.08629,-0.06287 c -0.04522,0.379841 -0.06857,0.766866 -0.06857,1.160836 v 89.121361 c 0,4.83044 3.507197,8.71883 7.863194,8.71883 H 179.49335 c 4.35598,0 7.8632,-3.88839 7.8632,-8.71883 V 66.516779 c 0,-0.338362 -0.0173,-0.671568 -0.0508,-0.999674 v 2.618915 c 0,16.103276 -11.69077,29.067293 -26.21247,29.067293 H 50.174974 c -14.521712,0 -26.212477,-12.964017 -26.212477,-29.067293 z"
     inkscape:label="portfolio" /><path
     style="fill:none;fill-opacity:1;fill-rule:evenodd;stroke:#ffffff;stroke-width:7.71031;stroke-linecap:round;stroke-dasharray:none;stroke-opacity:1"
     d="m 106.03377,86.453975 c 0,17.511865 0,17.511865 0,17.511865"
     id="latch" /><text
     xml:space="preserve"
     style="font-style:normal;font-variant:normal;font-weight:normal;font-stretch:normal;font-size:52.8586px;line-height:0;font-family:'Noto Sans Math';-inkscape-font-specification:'Noto Sans Math';text-align:center;writing-mode:lr-tb;direction:ltr;text-anchor:middle;fill:#ffffff;fill-opacity:1;fill-rule:evenodd;stroke:#ffffff;stroke-width:2.45224;stroke-linecap:round;stroke-dasharray:none;stroke-opacity:1"
     x="121.13927"
     y="135.01869"
     id="codeslash"
     transform="scale(0.88854183,1.1254394)"
     inkscape:label="codeslash"><tspan
       sodipodi:role="line"
       id="tspan93"
       style="font-style:normal;font-variant:normal;font-weight:normal;font-stretch:normal;font-size:52.8586px;font-family:'Noto Sans Linear B';-inkscape-font-specification:'Noto Sans Linear B';fill:#ffffff;fill-opacity:1;stroke-width:2.45224;stroke-dasharray:none"
       x="121.13927"
       y="135.01869">&lt;/&gt;</tspan></text></svg>
