<?xml version="1.0" encoding="UTF-8" standalone="no"?>
<svg
   width="209mm"
   height="199mm"
   inkscape:version="1.4.3 (0d15f75042, 2025-12-25)"
   sodipodi:docname="MCT630_system_motion_icon.v.1.0.svg"
   version="1.1"
   viewBox="0 0 209 199"
   xml:space="preserve"
   id="svg18"
   xmlns:inkscape="http://www.inkscape.org/namespaces/inkscape"
   xmlns:sodipodi="http://sodipodi.sourceforge.net/DTD/sodipodi-0.dtd"
   xmlns="http://www.w3.org/2000/svg"
   xmlns:svg="http://www.w3.org/2000/svg"><defs
     id="defs18"><rect
       x="6.8965517"
       y="212.06897"
       width="781.03448"
       height="336.2069"
       id="rect3" /></defs><sodipodi:namedview
     bordercolor="#000000"
     borderopacity="0.25"
     inkscape:current-layer="svg18"
     inkscape:cx="400"
     inkscape:cy="410.34483"
     inkscape:deskcolor="#d1d1d1"
     inkscape:document-units="mm"
     inkscape:pagecheckerboard="true"
     inkscape:pageopacity="0.0"
     inkscape:showpageshadow="2"
     inkscape:window-height="718"
     inkscape:window-maximized="1"
     inkscape:window-width="1280"
     inkscape:window-x="0"
     inkscape:window-y="0"
     inkscape:zoom="0.58"
     pagecolor="#006fd2"
     id="namedview1"
     showguides="true" /><path
     style="baseline-shift:baseline;display:inline;overflow:visible;fill:#ffffff;fill-rule:evenodd;stroke-linecap:square;stroke-miterlimit:1.2;stroke-dasharray:none;enable-background:accumulate;stop-color:#000000;stop-opacity:1;opacity:1;stroke:#000000;stroke-opacity:1;fill-opacity:1;stroke-width:2.9"
     d="m 69.78125,96.197266 v 1.066406 c -0.264545,0.173813 -0.563278,0.279974 -0.802734,0.498047 -1.286567,1.161996 -1.988288,2.756211 -1.976563,4.486331 v 13.68945 3.25 h 6.5 v -3.25 -13.23828 l 2.763672,0.0137 v -0.0156 h 22.765625 3.25 v -6.500004 h -3.25 -25.984375 -0.01563 z m 52,0 v 6.500004 h 3.25 26 3.25 v -6.500004 h -3.25 -26 z m 52,0 v 6.500004 h 3.25 21.375 l 0.16797,2.77929 6.48828,-0.38672 -0.19531,-3.24414 c -0.0828,-1.38468 -0.62698,-2.655175 -1.54883,-3.669919 -1.16216,-1.287904 -2.75917,-1.990247 -4.49024,-1.978515 h -21.79687 z m 24.59961,28.591794 v 3.25 26 3.25 h 6.5 v -3.25 -26 -3.25 z M 67.001953,138.6875 v 3.25 26 3.25 h 6.5 v -3.25 -26 -3.25 z m 131.378907,38.10156 v 3.25 4.19922 h -16.49024 -3.25 v 6.5 h 3.25 16.94336 c 1.51593,0.008 2.93946,-0.537 4.06641,-1.5625 1.28847,-1.16222 1.9922,-2.75682 1.98047,-4.48828 v -4.64844 -3.25 z m -123.740235,7.44922 v 6.5 h 3.25 26.000005 3.25 v -6.5 h -3.25 -26.000005 z m 52.000005,0 v 6.5 h 3.24999 26 3.25 v -6.5 h -3.25 -26 z"
     id="rect1" /><path
     style="baseline-shift:baseline;display:inline;overflow:visible;opacity:1;fill:#ffffff;fill-rule:evenodd;stroke:#000000;stroke-width:3;stroke-linecap:square;stroke-miterlimit:1.2;stroke-dasharray:none;stroke-opacity:1;enable-background:accumulate;stop-color:#000000;stop-opacity:1"
     d="M 6.9494189,76.786812 C 3.3385704,78.83946 2.0424415,83.659628 4.1193295,87.311617 L 63.606883,191.91422 c 2.076887,3.65199 6.882776,5.00336 10.493624,2.95071 L 202.89248,121.65097 c 3.61085,-2.05265 4.90698,-6.87282 2.83009,-10.5248 L 146.23501,6.5235647 C 144.15813,2.8715758 139.35224,1.5202022 135.74139,3.5728489 Z M 14.762168,84.643989 138.4995,14.30342 195.07973,113.79379 71.342395,184.13436 Z"
     id="rect2" /><path
     d="m 67.394879,130.21426 c 0,-15.88234 -6.008551,-26.15915 -17.503169,-30.05188 L 27.947438,92.844046 c -6.13917,-2.02422 -9.012825,-6.539789 -9.012825,-14.48096 0,-12.145322 6.400412,-19.307948 17.372548,-19.307948 11.363998,0 19.201237,7.474044 19.201237,22.733551 h 9.796551 c 0,-24.602061 -10.972137,-35.657418 -28.997788,-35.657418 -17.76441,0 -27.4303401,14.48096 -27.4303401,34.100326 0,14.169541 5.4860691,23.200673 16.3275841,26.781983 l 15.8051,5.29413 c 12.670204,4.20414 16.327583,8.71971 16.327583,19.30794 0,12.30103 -7.314758,19.30795 -19.72372,19.30795 -13.453929,0 -21.55241,-8.56401 -21.55241,-26.15916 H 6.2644084 c 0,27.56054 12.9314456,39.08302 30.8264766,39.08302 18.809376,0 30.303994,-12.76816 30.303994,-33.6332 z M 138.45255,49.089747 H 126.30482 L 104.22993,102.80944 82.155041,49.089747 H 70.00732 l 28.997783,66.799263 v 44.99997 h 10.449647 v -44.99997 z m 63.35115,81.124513 c 0,-15.88234 -6.00855,-26.15915 -17.50317,-30.05188 l -21.94426,-7.318334 c -6.13918,-2.02422 -9.01283,-6.539789 -9.01283,-14.48096 0,-12.145322 6.40041,-19.307948 17.37254,-19.307948 11.36401,0 19.20124,7.474044 19.20124,22.733551 h 9.79655 c 0,-24.602061 -10.97214,-35.657418 -28.99779,-35.657418 -17.76441,0 -27.43033,14.48096 -27.43033,34.100326 0,14.169541 5.48606,23.200673 16.32758,26.781983 l 15.8051,5.29413 c 12.6702,4.20414 16.32758,8.71971 16.32758,19.30794 0,12.30103 -7.31476,19.30795 -19.72372,19.30795 -13.45393,0 -21.55241,-8.56401 -21.55241,-26.15916 h -9.79655 c 0,27.56054 12.93144,39.08302 30.82647,39.08302 18.80938,0 30.304,-12.76816 30.304,-33.6332 z"
     id="text1"
     style="font-stretch:condensed;font-size:192px;line-height:0;font-family:'TeX Gyre Heros Cn';-inkscape-font-specification:'TeX Gyre Heros Cn Condensed';text-align:center;text-anchor:middle;white-space:pre;fill:#ffffff;fill-opacity:0.538206;fill-rule:evenodd;stroke:#000000;stroke-width:5.56879;stroke-linecap:square;stroke-miterlimit:1.2"
     aria-label="SYS" /></svg>
