<?xml version="1.0" encoding="UTF-8" standalone="no"?>
<svg
   width="209mm"
   height="199mm"
   inkscape:version="1.4.2 (ebf0e940d0, 2025-05-08)"
   sodipodi:docname="MCT630_darktheme_icon.v.1.0.svg"
   version="1.1"
   viewBox="0 0 209 199"
   xml:space="preserve"
   id="svg18"
   xmlns:inkscape="http://www.inkscape.org/namespaces/inkscape"
   xmlns:sodipodi="http://sodipodi.sourceforge.net/DTD/sodipodi-0.dtd"
   xmlns="http://www.w3.org/2000/svg"
   xmlns:svg="http://www.w3.org/2000/svg"><defs
     id="defs18" /><sodipodi:namedview
     bordercolor="#000000"
     borderopacity="0.25"
     inkscape:current-layer="svg18"
     inkscape:cx="401.72414"
     inkscape:cy="331.03448"
     inkscape:deskcolor="#d1d1d1"
     inkscape:document-units="mm"
     inkscape:pagecheckerboard="true"
     inkscape:pageopacity="0.0"
     inkscape:showpageshadow="2"
     inkscape:window-height="718"
     inkscape:window-maximized="1"
     inkscape:window-width="1280"
     inkscape:window-x="0"
     inkscape:window-y="0"
     inkscape:zoom="0.58"
     pagecolor="#1d1d1d"
     id="namedview1"
     showguides="true" /><path
     id="path1"
     style="fill:#000000;fill-rule:evenodd;stroke:#000000;stroke-width:2.28677;stroke-linecap:round;stroke-linejoin:round;stroke-miterlimit:7.7;stroke-opacity:1"
     d="m 104.56048,36.341376 a 68.315692,62.190006 0 0 0 -68.315638,62.190496 68.315692,62.190006 0 0 0 68.315638,62.189968 68.315692,62.190006 0 0 0 42.68265,-13.63223 50.25008,50.236168 0 0 1 -17.37796,3.09966 50.25008,50.236168 0 0 1 -50.250454,-50.236381 50.25008,50.236168 0 0 1 50.250454,-50.235853 50.25008,50.236168 0 0 1 24.81101,6.55071 68.315692,62.190006 0 0 0 -50.1157,-19.92637 z" /></svg>
