<?xml version="1.0" encoding="UTF-8" standalone="no"?>
<svg
   width="209mm"
   height="199mm"
   inkscape:version="1.4.3 (0d15f75042, 2025-12-25)"
   sodipodi:docname="MCT630_standard_motion_icon.v.1.0.svg"
   version="1.1"
   viewBox="0 0 209 199"
   xml:space="preserve"
   id="svg18"
   xmlns:inkscape="http://www.inkscape.org/namespaces/inkscape"
   xmlns:sodipodi="http://sodipodi.sourceforge.net/DTD/sodipodi-0.dtd"
   xmlns="http://www.w3.org/2000/svg"
   xmlns:svg="http://www.w3.org/2000/svg"><defs
     id="defs18" /><sodipodi:namedview
     bordercolor="#000000"
     borderopacity="0.25"
     inkscape:current-layer="svg18"
     inkscape:cx="400"
     inkscape:cy="408.62069"
     inkscape:deskcolor="#d1d1d1"
     inkscape:document-units="mm"
     inkscape:pagecheckerboard="true"
     inkscape:pageopacity="0.0"
     inkscape:showpageshadow="2"
     inkscape:window-height="718"
     inkscape:window-maximized="1"
     inkscape:window-width="1280"
     inkscape:window-x="0"
     inkscape:window-y="0"
     inkscape:zoom="0.58"
     pagecolor="#006fd2"
     id="namedview1"
     showguides="true" /><path
     style="baseline-shift:baseline;display:inline;overflow:visible;fill:#ffffff;fill-rule:evenodd;stroke-linecap:square;stroke-miterlimit:1.2;stroke-dasharray:none;enable-background:accumulate;stop-color:#000000;stop-opacity:1;opacity:1;stroke:#000000;stroke-opacity:1;fill-opacity:1;stroke-width:2.9"
     d="m 69.78125,96.197266 v 1.066406 c -0.264545,0.173813 -0.563278,0.279974 -0.802734,0.498047 -1.286567,1.161996 -1.988288,2.756211 -1.976563,4.486331 v 13.68945 3.25 h 6.5 v -3.25 -13.23828 l 2.763672,0.0137 v -0.0156 h 22.765625 3.25 v -6.500004 h -3.25 -25.984375 -0.01563 z m 52,0 v 6.500004 h 3.25 26 3.25 v -6.500004 h -3.25 -26 z m 52,0 v 6.500004 h 3.25 21.375 l 0.16797,2.77929 6.48828,-0.38672 -0.19531,-3.24414 c -0.0828,-1.38468 -0.62698,-2.655175 -1.54883,-3.669919 -1.16216,-1.287904 -2.75917,-1.990247 -4.49024,-1.978515 h -21.79687 z m 24.59961,28.591794 v 3.25 26 3.25 h 6.5 v -3.25 -26 -3.25 z M 67.001953,138.6875 v 3.25 26 3.25 h 6.5 v -3.25 -26 -3.25 z m 131.378907,38.10156 v 3.25 4.19922 h -16.49024 -3.25 v 6.5 h 3.25 16.94336 c 1.51593,0.008 2.93946,-0.537 4.06641,-1.5625 1.28847,-1.16222 1.9922,-2.75682 1.98047,-4.48828 v -4.64844 -3.25 z m -123.740235,7.44922 v 6.5 h 3.25 26.000005 3.25 v -6.5 h -3.25 -26.000005 z m 52.000005,0 v 6.5 h 3.24999 26 3.25 v -6.5 h -3.25 -26 z"
     id="rect1" /><path
     style="baseline-shift:baseline;display:inline;overflow:visible;opacity:1;fill:#ffffff;fill-rule:evenodd;stroke:#000000;stroke-width:3;stroke-linecap:square;stroke-miterlimit:1.2;stroke-dasharray:none;stroke-opacity:1;enable-background:accumulate;stop-color:#000000;stop-opacity:1"
     d="M 6.9494189,76.786812 C 3.3385704,78.83946 2.0424415,83.659628 4.1193295,87.311617 L 63.606883,191.91422 c 2.076887,3.65199 6.882776,5.00336 10.493624,2.95071 L 202.89248,121.65097 c 3.61085,-2.05265 4.90698,-6.87282 2.83009,-10.5248 L 146.23501,6.5235647 C 144.15813,2.8715758 139.35224,1.5202022 135.74139,3.5728489 Z M 14.762168,84.643989 138.4995,14.30342 195.07973,113.79379 71.342395,184.13436 Z"
     id="rect2" /></svg>
